<mxfile host="app.diagrams.net" modified="2022-09-07T08:24:28.973Z" agent="5.0 (Windows NT 10.0; Win64; x64) AppleWebKit/537.36 (KHTML, like Gecko) Chrome/104.0.0.0 Safari/537.36" etag="1-yZ5QBHHJ3kIvu05-yK" version="20.2.7" type="github">
  <diagram id="czq2NwJjlsjAraEdjovs" name="第 1 页">
    <mxGraphModel dx="2012" dy="1831" grid="1" gridSize="10" guides="1" tooltips="1" connect="1" arrows="1" fold="1" page="1" pageScale="1" pageWidth="827" pageHeight="1169" math="0" shadow="0">
      <root>
        <mxCell id="0" />
        <mxCell id="1" parent="0" />
        <mxCell id="hmzTRBHMW24GZiser8V7-12" value="" style="group" vertex="1" connectable="0" parent="1">
          <mxGeometry x="-220" y="-260" width="450" height="360" as="geometry" />
        </mxCell>
        <mxCell id="hmzTRBHMW24GZiser8V7-7" value="" style="shape=folder;spacingTop=10;tabWidth=100;tabHeight=25;tabPosition=left;dashed=1;enumerate=0;comic=1;jiggle=1;treeMoving=0;treeFolding=0;deletable=1;rotatable=0;noLabel=0;shadow=1;sketch=0;" vertex="1" parent="hmzTRBHMW24GZiser8V7-12">
          <mxGeometry x="10" width="450" height="360" as="geometry" />
        </mxCell>
        <mxCell id="hmzTRBHMW24GZiser8V7-11" value="goods*11" style="text;html=1;strokeColor=none;fillColor=none;align=center;verticalAlign=middle;whiteSpace=wrap;rounded=0;shadow=1;comic=1;sketch=0;jiggle=1;fontFamily=Verdana;fontSize=5;" vertex="1" parent="hmzTRBHMW24GZiser8V7-12">
          <mxGeometry x="14.516129032258064" y="-8.881784197001252e-16" width="87.0967741935484" height="28.8" as="geometry" />
        </mxCell>
        <mxCell id="hmzTRBHMW24GZiser8V7-35" style="edgeStyle=orthogonalEdgeStyle;rounded=0;orthogonalLoop=1;jettySize=auto;html=1;fontFamily=Verdana;fontSize=5;fontColor=#000000;" edge="1" parent="hmzTRBHMW24GZiser8V7-12" source="hmzTRBHMW24GZiser8V7-31" target="hmzTRBHMW24GZiser8V7-34">
          <mxGeometry relative="1" as="geometry" />
        </mxCell>
        <mxCell id="hmzTRBHMW24GZiser8V7-37" style="edgeStyle=orthogonalEdgeStyle;rounded=0;orthogonalLoop=1;jettySize=auto;html=1;fontFamily=Verdana;fontSize=5;fontColor=#000000;" edge="1" parent="hmzTRBHMW24GZiser8V7-12" source="hmzTRBHMW24GZiser8V7-31" target="hmzTRBHMW24GZiser8V7-36">
          <mxGeometry relative="1" as="geometry" />
        </mxCell>
        <mxCell id="hmzTRBHMW24GZiser8V7-31" value="&lt;b&gt;&lt;font color=&quot;#0000cc&quot;&gt;goodswebui-web*4&lt;/font&gt;&lt;/b&gt;" style="sketch=0;aspect=fixed;html=1;points=[];align=center;image;fontSize=12;image=img/lib/mscae/App_Services.svg;shadow=1;comic=1;jiggle=1;fontFamily=Verdana;" vertex="1" parent="hmzTRBHMW24GZiser8V7-12">
          <mxGeometry x="70" y="40" width="46.8" height="46.8" as="geometry" />
        </mxCell>
        <mxCell id="hmzTRBHMW24GZiser8V7-39" style="edgeStyle=orthogonalEdgeStyle;rounded=0;orthogonalLoop=1;jettySize=auto;html=1;fontFamily=Verdana;fontSize=5;fontColor=#000000;" edge="1" parent="hmzTRBHMW24GZiser8V7-12" source="hmzTRBHMW24GZiser8V7-34" target="hmzTRBHMW24GZiser8V7-38">
          <mxGeometry relative="1" as="geometry" />
        </mxCell>
        <mxCell id="hmzTRBHMW24GZiser8V7-34" value="&lt;span style=&quot;font-weight: normal;&quot;&gt;goods-core*4&lt;/span&gt;" style="sketch=0;aspect=fixed;html=1;points=[];align=center;image;fontSize=12;image=img/lib/mscae/App_Services.svg;shadow=1;comic=1;jiggle=1;fontFamily=Verdana;fontStyle=1" vertex="1" parent="hmzTRBHMW24GZiser8V7-12">
          <mxGeometry x="260" y="120" width="46.8" height="46.8" as="geometry" />
        </mxCell>
        <mxCell id="hmzTRBHMW24GZiser8V7-36" value="&lt;span style=&quot;font-weight: normal;&quot;&gt;goods-cache*4&lt;/span&gt;" style="sketch=0;aspect=fixed;html=1;points=[];align=center;image;fontSize=12;image=img/lib/mscae/App_Services.svg;shadow=1;comic=1;jiggle=1;fontFamily=Verdana;fontStyle=1" vertex="1" parent="hmzTRBHMW24GZiser8V7-12">
          <mxGeometry x="70" y="156.6" width="46.8" height="46.8" as="geometry" />
        </mxCell>
        <mxCell id="hmzTRBHMW24GZiser8V7-38" value="&lt;span style=&quot;font-weight: normal;&quot;&gt;goodsdb&lt;/span&gt;" style="sketch=0;aspect=fixed;html=1;points=[];align=center;image;fontSize=12;image=img/lib/mscae/App_Services.svg;shadow=1;comic=1;jiggle=1;fontFamily=Verdana;fontStyle=1" vertex="1" parent="hmzTRBHMW24GZiser8V7-12">
          <mxGeometry x="260" y="230" width="46.8" height="46.8" as="geometry" />
        </mxCell>
        <mxCell id="hmzTRBHMW24GZiser8V7-13" value="" style="group" vertex="1" connectable="0" parent="1">
          <mxGeometry x="350" y="80" width="170" height="100" as="geometry" />
        </mxCell>
        <mxCell id="hmzTRBHMW24GZiser8V7-14" value="" style="shape=folder;spacingTop=10;tabWidth=100;tabHeight=25;tabPosition=left;dashed=1;enumerate=0;comic=1;jiggle=1;treeMoving=0;treeFolding=0;deletable=1;rotatable=0;noLabel=0;shadow=1;sketch=0;" vertex="1" parent="hmzTRBHMW24GZiser8V7-13">
          <mxGeometry width="170" height="100" as="geometry" />
        </mxCell>
        <mxCell id="hmzTRBHMW24GZiser8V7-15" value="purchase" style="text;html=1;strokeColor=none;fillColor=none;align=center;verticalAlign=middle;whiteSpace=wrap;rounded=0;shadow=1;comic=1;sketch=0;jiggle=1;fontFamily=Verdana;fontSize=5;" vertex="1" parent="hmzTRBHMW24GZiser8V7-13">
          <mxGeometry x="10" y="3" width="60" height="20" as="geometry" />
        </mxCell>
        <mxCell id="hmzTRBHMW24GZiser8V7-16" value="" style="group" vertex="1" connectable="0" parent="1">
          <mxGeometry x="600" y="80" width="170" height="100" as="geometry" />
        </mxCell>
        <mxCell id="hmzTRBHMW24GZiser8V7-17" value="" style="shape=folder;spacingTop=10;tabWidth=100;tabHeight=25;tabPosition=left;dashed=1;enumerate=0;comic=1;jiggle=1;treeMoving=0;treeFolding=0;deletable=1;rotatable=0;noLabel=0;shadow=1;sketch=0;" vertex="1" parent="hmzTRBHMW24GZiser8V7-16">
          <mxGeometry width="170" height="100" as="geometry" />
        </mxCell>
        <mxCell id="hmzTRBHMW24GZiser8V7-18" value="coupon" style="text;html=1;strokeColor=none;fillColor=none;align=center;verticalAlign=middle;whiteSpace=wrap;rounded=0;shadow=1;comic=1;sketch=0;jiggle=1;fontFamily=Verdana;fontSize=5;" vertex="1" parent="hmzTRBHMW24GZiser8V7-16">
          <mxGeometry x="10" y="3" width="60" height="20" as="geometry" />
        </mxCell>
        <mxCell id="hmzTRBHMW24GZiser8V7-19" value="" style="group" vertex="1" connectable="0" parent="1">
          <mxGeometry x="350" y="260" width="170" height="100" as="geometry" />
        </mxCell>
        <mxCell id="hmzTRBHMW24GZiser8V7-20" value="" style="shape=folder;spacingTop=10;tabWidth=100;tabHeight=25;tabPosition=left;dashed=1;enumerate=0;comic=1;jiggle=1;treeMoving=0;treeFolding=0;deletable=1;rotatable=0;noLabel=0;shadow=1;sketch=0;" vertex="1" parent="hmzTRBHMW24GZiser8V7-19">
          <mxGeometry width="170" height="100" as="geometry" />
        </mxCell>
        <mxCell id="hmzTRBHMW24GZiser8V7-21" value="promo" style="text;html=1;strokeColor=none;fillColor=none;align=center;verticalAlign=middle;whiteSpace=wrap;rounded=0;shadow=1;comic=1;sketch=0;jiggle=1;fontFamily=Verdana;fontSize=5;" vertex="1" parent="hmzTRBHMW24GZiser8V7-19">
          <mxGeometry x="10" y="3" width="60" height="20" as="geometry" />
        </mxCell>
        <mxCell id="hmzTRBHMW24GZiser8V7-22" value="" style="group" vertex="1" connectable="0" parent="1">
          <mxGeometry x="100" y="250" width="170" height="100" as="geometry" />
        </mxCell>
        <mxCell id="hmzTRBHMW24GZiser8V7-23" value="" style="shape=folder;spacingTop=10;tabWidth=100;tabHeight=25;tabPosition=left;dashed=1;enumerate=0;comic=1;jiggle=1;treeMoving=0;treeFolding=0;deletable=1;rotatable=0;noLabel=0;shadow=1;sketch=0;" vertex="1" parent="hmzTRBHMW24GZiser8V7-22">
          <mxGeometry width="170" height="100" as="geometry" />
        </mxCell>
        <mxCell id="hmzTRBHMW24GZiser8V7-24" value="order" style="text;html=1;strokeColor=none;fillColor=none;align=center;verticalAlign=middle;whiteSpace=wrap;rounded=0;shadow=1;comic=1;sketch=0;jiggle=1;fontFamily=Verdana;fontSize=5;" vertex="1" parent="hmzTRBHMW24GZiser8V7-22">
          <mxGeometry x="10" y="3" width="60" height="20" as="geometry" />
        </mxCell>
        <mxCell id="hmzTRBHMW24GZiser8V7-25" value="" style="group" vertex="1" connectable="0" parent="1">
          <mxGeometry x="610" y="260" width="170" height="100" as="geometry" />
        </mxCell>
        <mxCell id="hmzTRBHMW24GZiser8V7-26" value="" style="shape=folder;spacingTop=10;tabWidth=100;tabHeight=25;tabPosition=left;dashed=1;enumerate=0;comic=1;jiggle=1;treeMoving=0;treeFolding=0;deletable=1;rotatable=0;noLabel=0;shadow=1;sketch=0;" vertex="1" parent="hmzTRBHMW24GZiser8V7-25">
          <mxGeometry width="170" height="100" as="geometry" />
        </mxCell>
        <mxCell id="hmzTRBHMW24GZiser8V7-27" value="pay" style="text;html=1;strokeColor=none;fillColor=none;align=center;verticalAlign=middle;whiteSpace=wrap;rounded=0;shadow=1;comic=1;sketch=0;jiggle=1;fontFamily=Verdana;fontSize=5;" vertex="1" parent="hmzTRBHMW24GZiser8V7-25">
          <mxGeometry x="10" y="3" width="60" height="20" as="geometry" />
        </mxCell>
        <mxCell id="hmzTRBHMW24GZiser8V7-28" value="" style="group" vertex="1" connectable="0" parent="1">
          <mxGeometry x="100" y="400" width="170" height="100" as="geometry" />
        </mxCell>
        <mxCell id="hmzTRBHMW24GZiser8V7-29" value="" style="shape=folder;spacingTop=10;tabWidth=100;tabHeight=25;tabPosition=left;dashed=1;enumerate=0;comic=1;jiggle=1;treeMoving=0;treeFolding=0;deletable=1;rotatable=0;noLabel=0;shadow=1;sketch=0;" vertex="1" parent="hmzTRBHMW24GZiser8V7-28">
          <mxGeometry width="170" height="100" as="geometry" />
        </mxCell>
        <mxCell id="hmzTRBHMW24GZiser8V7-30" value="inventory" style="text;html=1;strokeColor=none;fillColor=none;align=center;verticalAlign=middle;whiteSpace=wrap;rounded=0;shadow=1;comic=1;sketch=0;jiggle=1;fontFamily=Verdana;fontSize=5;" vertex="1" parent="hmzTRBHMW24GZiser8V7-28">
          <mxGeometry x="10" y="3" width="60" height="20" as="geometry" />
        </mxCell>
      </root>
    </mxGraphModel>
  </diagram>
</mxfile>
